<?xml version="1.0" encoding="utf-8"?>
<!-- Generator: Adobe Illustrator 23.0.1, SVG Export Plug-In . SVG Version: 6.00 Build 0)  -->
<svg version="1.1" id="OBJECTS" xmlns="http://www.w3.org/2000/svg" xmlns:xlink="http://www.w3.org/1999/xlink" x="0px" y="0px"
	 viewBox="0 0 500 500" style="enable-background:new 0 0 500 500;" xml:space="preserve">
<style type="text/css">
	.st0{fill:#F3F4EA;}
	.st1{fill:#9D9392;}
	.st2{fill:#F4C5B7;}
	.st3{fill:#F0D9C2;}
	.st4{fill:#FFE6C9;}
	.st5{fill:#688890;}
	.st6{fill:#30303B;}
	.st7{fill:none;stroke:#BCB3B2;stroke-width:0.3618;stroke-linecap:round;stroke-miterlimit:10;}
	.st8{fill:#383635;}
	.st9{fill:#ED9D89;}
	.st10{fill:#24244F;}
	.st11{fill:#1E0044;}
	.st12{opacity:0.14;fill:#6868B2;}
	.st13{fill:#F3C042;}
	.st14{font-family:'Quicksand-Bold';}
	.st15{font-size:2.1201px;}
	.st16{fill:#F2C3B5;}
	.st17{fill:#F6C7B9;}
	.st18{fill:#473D40;}
	.st19{fill:#E9A28D;}
	.st20{fill:#EAB2A0;}
	.st21{opacity:0.66;fill:#C9907E;}
	.st22{fill:none;stroke:#211914;stroke-width:0.5109;stroke-miterlimit:10;}
	.st23{fill:#060606;}
	.st24{fill:#053142;}
	.st25{fill:none;stroke:#4C4985;stroke-width:0.5182;stroke-miterlimit:10;}
	.st26{fill:#4C4985;}
	.st27{fill:#FFFFFF;}
	.st28{fill:#E0E0E0;}
	.st29{fill:#222327;}
	.st30{fill:none;stroke:#211914;stroke-width:0.5291;stroke-miterlimit:10;}
	.st31{fill:#467F80;}
	.st32{fill:#DBD1BD;}
	.st33{fill:#F1F1F1;}
	.st34{opacity:3.000000e-02;fill:#443D40;}
	.st35{fill:none;stroke:#4C4985;stroke-width:1.008;stroke-miterlimit:10;}
	.st36{fill:#D8E8E0;}
	.st37{fill:#350D60;stroke:#350D60;stroke-width:0.252;stroke-linecap:round;stroke-miterlimit:10;}
	.st38{fill:#FDEB9D;}
	.st39{fill:#FDEB9D;stroke:#DBD1BD;stroke-width:0.252;stroke-linecap:round;stroke-miterlimit:10;}
	.st40{fill:#0C1023;stroke:#0C1023;stroke-width:0.231;stroke-miterlimit:10;}
	.st41{fill:#03071D;}
</style>
<g>
	<g>
		<g>
			<path class="st0" d="M344.6,440.2c0,0-9.4,4.7-10.9,9.2c0,0,18.3-3.1,21.6-3.9l0.2-8l-10.1,0.5L344.6,440.2z"/>
			<polygon class="st1" points="355.3,445.5 355.2,447.5 333.8,451 333.7,449.4 			"/>
		</g>
		<g>
			<g>
				<g>
					<g>
						<polygon class="st2" points="377.4,396.4 397.5,421.3 391.4,426.1 369.2,402.7 						"/>
					</g>
					<polygon class="st3" points="332.5,316.4 337.8,371.6 370.6,411.8 385.2,399.3 356.6,361.1 353.2,326 					"/>
				</g>
				<g>
					<g>
						<polygon class="st2" points="356.4,413.6 354.4,438.7 346.8,439 346.1,412.7 						"/>
					</g>
					<polygon class="st4" points="332.5,316.4 347.4,333.3 340.3,425.2 359.6,425.2 368.6,316.4 					"/>
				</g>
			</g>
			<g>
				<path class="st0" d="M390,427.5c0,0-3.6,9.8-1.5,14.2c0,0,11.1-14.8,12.9-17.8l-6.3-6l-7,7.3L390,427.5z"/>
				<polygon class="st1" points="401.4,423.9 402.7,425.4 389.6,442.8 388.5,441.7 				"/>
			</g>
		</g>
	</g>
	<g>
		<g>
			<g>
				<g>
					<polygon class="st5" points="418.3,371.6 420.2,370.6 391.9,321.8 390,322.8 					"/>
				</g>
				<g>
					<g>
						<path class="st1" d="M445.2,433.5c-0.2,2.5,1.7,4.6,4.1,4.8c2.5,0.2,4.6-1.7,4.8-4.1c0.2-2.5-1.7-4.6-4.1-4.8
							C447.5,429.2,445.4,431.1,445.2,433.5z"/>
						<path class="st1" d="M461.2,425.3c-0.2,2.5,1.7,4.6,4.1,4.8c2.5,0.2,4.6-1.7,4.8-4.1c0.2-2.5-1.7-4.6-4.1-4.8
							C463.6,421,461.4,422.9,461.2,425.3z"/>
					</g>
					<g>
						<path class="st6" d="M447.3,380.7l-4.1,2.4l23.5,42.1l4.5-2.5c1.6-0.9,2.2-3,1.3-4.6L452,381.9
							C451.1,380.3,449,379.7,447.3,380.7z"/>
						<path class="st6" d="M412.6,373.2l19-9c2.7-1.3,5.9-0.2,7.3,2.3l31.5,56.9l-24.4,13.7L412.6,373.2z"/>
					</g>
				</g>
			</g>
			<g>
				<g>
					<g>
						<g>
							<path class="st6" d="M345.7,243.8l19.8,0.6c0,0,20.3-0.9,18.4,35.4l0.1,36c0,0-9.3,11.5-33.5,4.8L345.7,243.8z"/>
							<path class="st6" d="M379.8,307.3L379.8,307.3c6.4,0,11.7-5.3,11.7-11.7v-14.9c0-6.4-5.3-11.7-11.7-11.7l0,0
								c-6.4,0-11.7,5.3-11.7,11.7v14.9C368.1,302,373.4,307.3,379.8,307.3z"/>
						</g>
						<g>
							<g>
								<path class="st1" d="M334.4,238.5c0,0-4.6,10.2,0.6,15.6l42.8-0.9c0,0,6.7-8-1.1-15.4L334.4,238.5z"/>
								<path class="st7" d="M378.6,246.3c0,0-1.1-1.6-0.3-2.8c0.8-1.2,1.9,2.3,0.8,4.6c-1.1,2.3-2.7-1.3-1.8-5.4"/>
								<path class="st7" d="M376.8,237.7c0,0-2.9,9.1,1.1,15.4"/>
							</g>
							<path class="st8" d="M348.9,238.2c0,0-3.1,5.1-0.8,15.3l-1.8,4.2l-2.1-3.9c0,0-2.5-11.2,0.9-15.6L348.9,238.2z"/>
							<path class="st8" d="M369.5,237.8c0,0-3,5.4-0.7,15.5l-4.1,0.1c0,0-2.3-11.2,1-15.6L369.5,237.8z"/>
						</g>
					</g>
					<path class="st9" d="M318.5,286l10.1-23.4c2.3-5.3,6.6-9.4,12.1-11.2c0.2-0.1,0.3-0.1,0.5-0.1c11.8-2.6,22.7,0.1,22.7,0.1
						l1,0.4c4.7,2,8.4,5.7,10.5,10.4l10.5,23.4l-13.8,6l3.1,48.5l-48.4-0.6l7.6-48.4L318.5,286z"/>
					<g>
						<path class="st6" d="M335.7,253.1c0.8,4.3,1.3,8.8,1.6,13.3c0.3,4.4,0.3,8.9-0.1,13.3c-0.4,4.4-1.1,8.8-2.5,12.8
							c-1.4,4-3.4,7.8-6.2,10.8l3.6,3.4c3.3-3.8,5.4-8.3,6.7-12.8c1.4-4.6,1.9-9.2,2.1-13.9c0.2-4.6,0-9.2-0.4-13.8
							c-0.5-4.6-1.1-9.1-2.2-13.6L335.7,253.1z"/>
						<path class="st6" d="M361.7,266c0.9-5,2.2-9.9,4.2-14.7l3.3,1.3c-1.6,4.5-2.6,9.3-3.2,14c-0.6,4.8-0.7,9.6,0,14.2
							c0.7,4.6,2.2,9,4.5,12.9c0.6,0.9,1.2,1.8,1.9,2.6l0.6,9.2c-2.9-2.5-5.6-5.4-7.4-8.8c-2.6-4.8-4-10-4.6-15.2
							C360.4,276.2,360.8,271.1,361.7,266z"/>
					</g>
				</g>
				<g>
					<g>
						<g>
							<path class="st10" d="M349.3,319.8l9.3,8.1l12.6-14.5l-9.3-8.1c-0.5-0.4-1.2-0.4-1.6,0.1l-11.1,12.7
								C348.8,318.7,348.8,319.4,349.3,319.8z"/>
							<path class="st11" d="M349.6,320.1l9.3,8.1l12.6-14.5l-9.3-8.1c-0.5-0.4-1.2-0.4-1.6,0.1l-11.1,12.7
								C349,318.9,349.1,319.7,349.6,320.1z"/>
							<path class="st12" d="M370,313.5l-8.2-7.1c-0.3-0.3-0.7-0.2-1,0.1l-10.6,12.2L370,313.5z"/>
							<g>
								<path class="st13" d="M361,310.9c0.1,0,0.2,0,0.3,0c0.9,0,1.9,0.3,2.7,1c0,0,0,0,0.1,0c0,0,0,0,0,0c0.8,0.7,1.2,1.6,1.3,2.5
									c0,0.1,0,0.2,0,0.3c0.1,1-0.3,2.1-1,2.9c-0.7,0.8-1.7,1.3-2.7,1.4c-0.1,0-0.2,0-0.3,0c-0.9,0-1.9-0.3-2.7-1c0,0,0,0-0.1,0
									c0,0,0,0,0,0c-0.8-0.7-1.2-1.6-1.3-2.5c0-0.1,0-0.2,0-0.3c-0.1-1,0.3-2.1,1-2.9C359,311.4,360,311,361,310.9z M358.7,312.4
									L358.7,312.4l1.3,1.1l0,0c0.5-0.5,1-1,1.5-1.3c-0.2-0.3-0.3-0.6-0.3-1C360.2,311.3,359.3,311.7,358.7,312.4z M363.8,314.4
									c-0.4-0.2-0.8-0.4-1.1-0.7l-1,1.2l1.2,1l0,0C363.2,315.5,363.6,314.9,363.8,314.4z M363.7,312L363.7,312
									c-0.4-0.2-1.1-0.1-1.8,0.3c0.2,0.3,0.5,0.7,0.8,1v0L363.7,312z M364,312.2l-1.1,1.2c0.3,0.3,0.7,0.5,1.1,0.6
									C364.2,313.3,364.3,312.6,364,312.2z M361.4,315.2l-1,1.2c0.3,0.3,0.6,0.7,0.8,1c0.5-0.3,1-0.7,1.4-1.2L361.4,315.2z
									 M360.1,316.6l-1.1,1.2c0.4,0.2,1.1,0.1,1.8-0.3C360.7,317.2,360.4,316.9,360.1,316.6z M358.8,317.6L358.8,317.6l1.1-1.2
									l0,0c-0.3-0.3-0.7-0.5-1.1-0.6C358.5,316.6,358.5,317.3,358.8,317.6z M360.1,316.2L360.1,316.2l1-1.2l-1.2-1
									c-0.4,0.5-0.8,1-1,1.6C359.4,315.6,359.7,315.9,360.1,316.2z M361.4,314.7l1-1.2l0,0c-0.3-0.3-0.6-0.7-0.8-1
									c-0.5,0.3-1,0.7-1.4,1.2l0,0L361.4,314.7z M361.4,311.2c0.1,0.3,0.2,0.5,0.3,0.8c0.5-0.3,0.9-0.4,1.3-0.4
									C362.5,311.3,362,311.2,361.4,311.2z M364.5,312.9c0,0.4-0.1,0.9-0.2,1.4c0.3,0.1,0.6,0.1,0.8,0.2
									C365,313.8,364.8,313.3,364.5,312.9z M365.1,314.7c-0.3,0-0.7-0.1-1-0.2c-0.2,0.5-0.6,1.1-1.1,1.7l0,0l1.3,1.1c0,0,0,0,0,0
									C364.9,316.5,365.2,315.6,365.1,314.7z M364.1,317.5l-1.3-1.1c-0.5,0.5-1,1-1.5,1.3c0.2,0.3,0.3,0.6,0.3,1
									C362.6,318.6,363.4,318.2,364.1,317.5z M361.4,318.7c-0.1-0.3-0.2-0.5-0.3-0.8c-0.5,0.3-0.9,0.4-1.3,0.4
									C360.3,318.6,360.8,318.7,361.4,318.7z M358.3,317c0-0.4,0.1-0.9,0.2-1.4c-0.3-0.1-0.6-0.1-0.8-0.2
									C357.8,316,358,316.6,358.3,317z M357.6,315.2c0.3,0,0.7,0.1,1,0.2c0.2-0.5,0.6-1.1,1.1-1.7l-1.3-1.1
									C357.9,313.4,357.6,314.3,357.6,315.2z"/>
								<text transform="matrix(-0.7556 -0.6551 -0.6551 0.7556 360.5674 324.1058)" class="st13 st14 st15">PASSPORT</text>
							</g>
						</g>
						<path class="st2" d="M317.8,291.6l2.6-5l7.7,2.5l-2.6,5.2c-0.3,0.7,0,1.5,0.7,1.8c7.3,3.5,15.7,7.8,22.5,11
							c0.2,0,4.5,1.5,6.1,1.4c0.5,0,1-0.2,1.5-0.4c0.5-0.2,1.2-0.6,1.6-0.9c0.4-0.4,1.1-0.1,1,0.4c-0.1,0.5-1.2,1.6-2.9,2.2
							c-1.7,0.6,1,1.6,1.9,2c1,0.4,3.9,1.7,4,2.1c0.2,0.6-0.4,0.9-1.4,0.5c-1-0.4-3.9-1.4-4.1-0.9c-0.2,0.5,4.8,2.4,4.8,2.4
							s1.1,0.2,0.9,0.8c-0.3,1.1-5.4-1.3-5.9-1.5c-0.3-0.2-0.5,0.4-0.2,0.6c0.4,0.2,5,1.8,4.7,2.9c-0.2,0.9-4.2-1.9-5.4-1.7
							c-1.1,0.2,3.2,1.8,3,2.6c-0.1,0.3-0.2,0.5-2.6-0.8c-1.7-0.9-6.2-4.4-8.3-5.6c-3.5-1.7-19.8-8.1-25.3-10.8
							C317.4,300.1,315.9,295.4,317.8,291.6z"/>
					</g>
					<path class="st16" d="M382.5,287.1l13,32.9l-0.1,0c0.6,1.7,2,6.1,1.9,6.9c-0.2,1-1.7,4-1.7,4s-1.6,0.2-1.5-1.2
						c0,0-1.9,0.4-1.4-1.3c0,0-1.4,0.5-1.2-1.5c0,0-1.4,0.9-1.1-1.2l-1.2-3.6l1.3-3.3l0,0l-8.3-13.8c-1.1-1.8-2-3.6-2.9-5.5
						l-4.1-9.2L382.5,287.1z"/>
				</g>
			</g>
		</g>
		<g>
			<path class="st17" d="M355.1,251.4c0,0-1.2,5-4.7,4.5c-3.3-0.5-2.9-4.8-2.9-4.8L355.1,251.4z"/>
			<g>
				<ellipse class="st18" cx="350.7" cy="223.3" rx="13.4" ry="11.4"/>
				<g>
					<g>
						<g>
							<path class="st19" d="M336.3,228l-2.2-2.7c-0.2-0.2,0-0.5,0.2-0.5l3.3-0.3L336.3,228z"/>
							<g>
								<path class="st2" d="M362.7,229.6c-0.1,9.9-11.2,12.5-18.8,13.2c-3.8,0.3-6.8-2.5-7.6-6.2c-0.8-3.5-0.5-9.6-0.5-9.6
									c1.6-7.8,6.4-12.6,12.9-12.8C357.8,214.1,362.8,220.4,362.7,229.6z"/>
								<g>
									<g>
										<polygon class="st2" points="345.1,242.7 347.6,251.7 355.1,251.4 354,236.9 										"/>
									</g>
									<polygon class="st20" points="345.1,242.7 346,245.8 354,236.9 									"/>
								</g>
							</g>
						</g>
						<g>
							<path class="st18" d="M367.9,225c-5.4-12.8-16.8-11.6-16.9-11.6c-3.6,0.4-6.3,3.6-5.7,7.2c0.6,3.4,2.9,7.4,10.2,8.3
								l-1.4,11.4c-0.6,4.6,9.8,3.8,13.6-5.8C368.9,231.4,369.2,228,367.9,225z"/>
							<g>
								<path class="st2" d="M359.5,231.5c-0.4,1.7-1.8,2.9-3.2,2.6c-1.4-0.3-2.3-1.9-2-3.6c0.4-1.7,1.8-2.9,3.2-2.6
									C358.9,228.1,359.8,229.8,359.5,231.5z"/>
								<path class="st21" d="M355.4,232.2c0,0,1.1-4.2,2.2-2.5c1.8,2.5-0.8,1.4-0.8,1.4S356.3,230.9,355.4,232.2z"/>
							</g>
						</g>
					</g>
					<g>
						<path class="st19" d="M344.3,229.5c0,0.9-1.1,1.6-2.3,1.5c-1.2-0.1-2.2-0.8-2.1-1.8c0-0.9,1.1-1.6,2.3-1.5
							C343.4,227.8,344.4,228.6,344.3,229.5z"/>
						<path class="st22" d="M338.7,223.5c0,0,0.7,5.2,5.6,1.6"/>
					</g>
				</g>
			</g>
		</g>
	</g>
</g>
<g>
	<g>
		<g>
			<g>
				<g>
					<polygon class="st2" points="284.7,398.1 299.6,417.1 293.8,421.7 276.8,404.1 					"/>
					<g>
						<path class="st23" d="M295.8,426.5c0,0-3.4,9.5-1.5,13.6c0,0,10.7-14.3,12.4-17.1l-11.3-12.5l-6.7,7L295.8,426.5z"/>
						<polygon class="st1" points="306.8,423.1 308.1,424.5 295.5,441.2 294.4,440.1 						"/>
					</g>
				</g>
				<polygon points="241.5,321.1 245.2,375.1 279.2,411.7 290.8,397.8 266.9,362.9 261.4,330.4 				"/>
			</g>
			<g>
				<g>
					<polygon class="st2" points="264.5,414.6 262.6,438.7 255.2,439 254.6,413.7 					"/>
					<g>
						<path class="st23" d="M253.1,440.6c0,0-9,4.5-10.5,8.8c0,0,17.6-2.9,20.8-3.8l0.5-16.8l-9.7,0.5L253.1,440.6z"/>
						<polygon class="st1" points="263.5,445.7 263.4,447.6 242.8,451 242.7,449.5 						"/>
					</g>
				</g>
				<polygon points="241.5,321.1 254,337.2 250.4,413.9 267.3,415.3 276.2,321.1 				"/>
			</g>
		</g>
		<g>
			<g>
				<g>
					<g>
						<path class="st24" d="M224.9,446.3c0,0.3,0.1,0.6,0.1,0.9c0,1.8-0.7,3.3-1.6,3.3c-0.9,0-1.7-1.5-1.7-3.3c0-0.3,0-0.6,0.1-0.9
							L224.9,446.3z"/>
						<path class="st24" d="M202.5,446.4c0,0.3,0.1,0.6,0.1,0.9c0,1.8-0.7,3.3-1.6,3.3c-0.9,0-1.7-1.5-1.7-3.3c0-0.3,0-0.6,0.1-0.9
							L202.5,446.4z"/>
						<g>
							<g>
								
									<rect x="222.9" y="339.5" transform="matrix(-1 4.551249e-03 -4.551249e-03 -1 449.3815 712.5221)" class="st24" width="1.9" height="34.4"/>
								
									<rect x="198.3" y="339.7" transform="matrix(-1 4.551249e-03 -4.551249e-03 -1 399.9935 712.8587)" class="st24" width="1.9" height="34.4"/>
							</g>
							<polygon class="st24" points="224.7,334.9 224.7,336.6 224.7,339.5 222.9,339.6 222.9,336.6 200,336.8 200,339.7 
								198.2,339.7 198.2,336.8 198.2,335 							"/>
						</g>
					</g>
					<g>
						<g>
							<path class="st25" d="M218.8,374.6c0,0-7.9-4.6-15.1,0H218.8z"/>
							<g>
								<path class="st5" d="M194.3,446.4l35.3-0.2c4,0,7.3-3.3,7.2-7.3l-0.3-57.7c0-4-3.3-7.3-7.3-7.2l-35.3,0.2
									c-4,0-7.3,3.3-7.2,7.3l0.3,57.7C187,443.2,190.3,446.4,194.3,446.4z"/>
								<g>
									<path class="st26" d="M226.8,374l2.4,0c4,0,7.3,3.2,7.3,7.2l0,1.5C234.1,382.1,229.3,380.1,226.8,374z"/>
									<path class="st26" d="M196.4,374.1l-2.4,0c-4,0-7.3,3.3-7.2,7.3l0,1.5C189.2,382.3,194,380.3,196.4,374.1z"/>
									<path class="st26" d="M227.2,446.2l2.4,0c4,0,7.3-3.3,7.2-7.3l0-1.5C234.3,438,229.6,440.1,227.2,446.2z"/>
									<path class="st26" d="M196.7,446.4l-2.4,0c-4,0-7.3-3.2-7.3-7.2l0-1.5C189.5,438.2,194.2,440.3,196.7,446.4z"/>
								</g>
							</g>
						</g>
						<g>
							<g>
								<path class="st26" d="M199.8,396.3l23.9-0.1c1.8,0,3.2-1.5,3.2-3.3l0-4.5c0-1.8-1.5-3.2-3.3-3.2l-23.9,0.1
									c-1.8,0-3.2,1.5-3.2,3.3l0,4.5C196.5,394.9,198,396.3,199.8,396.3z"/>
								<g>
									<path class="st27" d="M226.8,387.8c-2.5,0.1-5.1,0.2-7.6,0.2l-7.6,0.1l-7.6,0c-2.5,0-5.1-0.1-7.6-0.2
										c2.5-0.1,5.1-0.2,7.6-0.2l7.6-0.1l7.6,0C221.8,387.6,224.3,387.7,226.8,387.8z"/>
								</g>
							</g>
							<g>
								<path class="st26" d="M200.2,435.3l23.3-0.1c2,0,3.6-1.6,3.6-3.6l-0.1-24.9c0-2-1.6-3.6-3.6-3.6l-23.3,0.1
									c-2,0-3.6,1.6-3.6,3.6l0.1,24.9C196.7,433.8,198.3,435.4,200.2,435.3z"/>
								<g>
									<path class="st27" d="M227,406.8c-2.5,0.1-5.1,0.2-7.6,0.2l-7.6,0.1l-7.6,0c-2.5,0-5.1-0.1-7.6-0.2
										c2.5-0.1,5.1-0.2,7.6-0.2l7.6-0.1l7.6,0C221.9,406.7,224.4,406.7,227,406.8z"/>
								</g>
							</g>
						</g>
					</g>
				</g>
				<path class="st16" d="M208.3,337c0.9-1.5,4.1-5.4,5.3-7.3c0,0,0,0,0,0l17.5-44.7l7.9,3.5l-10.9,24.1c-0.8,1.8-1.7,3.6-2.8,5.3
					l-2.9,5h0l-2.8,4.9l-1.8,3c-0.3,1.6-0.1,4.8-0.1,5.7c0,0.5,0.1,0.9,0.3,1.4c0.2,0.5,0.5,1.2,0.8,1.5c0.3,0.4,0,1-0.4,0.9
					c-0.5-0.1-1.4-1.1-1.9-2.7c-0.5-1.6-1.5,0.8-1.9,1.7c-0.4,0.9-1.7,3.5-2.1,3.6c-0.5,0.1-0.8-0.4-0.4-1.3c0.4-0.9,1.4-3.5,1-3.7
					c-0.5-0.2-2.4,4.3-2.4,4.3s-0.2,1-0.8,0.8c-1-0.3,1.4-4.9,1.6-5.4c0.2-0.3-0.3-0.5-0.5-0.2c-0.2,0.3-1.8,4.5-2.8,4.2
					c-0.8-0.3,1.9-3.8,1.8-4.8c-0.2-1-1.8,2.9-2.5,2.6C207.2,339.2,207,339.1,208.3,337z"/>
			</g>
			<g>
				<g>
					<g>
						<path class="st16" d="M213.6,329.7c0.8,0.3,2.1-1.6,2.9-1.3c0.9,0.5,0.5,1.4,1.5,1.9c-0.4,1.3-0.2,5.1-0.2,6.2
							c0,0.5,0.1,0.9,0.3,1.4c0.2,0.5,0.5,1.2,0.8,1.5c0.3,0.4,0,1-0.4,0.9c-0.5-0.1-1.4-1.1-1.9-2.7c-0.5-1.6-1.5,0.8-1.9,1.7
							c-0.4,0.9-1.7,3.5-2.1,3.6c-0.5,0.1-0.8-0.4-0.4-1.3c0.4-0.9,1.4-3.5,1-3.7c-0.5-0.2-2.4,4.3-2.4,4.3s-0.2,1-0.8,0.8
							c-1-0.3,1.4-4.9,1.6-5.4c0.2-0.3-0.3-0.5-0.5-0.2c-0.2,0.3-1.8,4.5-2.8,4.2c-0.8-0.3,1.9-3.8,1.8-4.8c-0.2-1-1.8,2.9-2.5,2.6
							c-0.3-0.1-0.5-0.2,0.8-2.3C209.2,335.5,212.4,331.6,213.6,329.7z"/>
						<path class="st2" d="M255.5,290.7l19.5,7.5l-1.8-9.6l9.4-0.4l5.6,20.6c1.1,3.3-2.4,6.3-5.5,4.5l-29.7-16.8
							C253.9,294.6,254.7,292.6,255.5,290.7z"/>
					</g>
					<path class="st1" d="M226.1,287.6c0,0,5.5-28.4,9.1-36.5c0.4-1,1.3-1.7,2.4-1.8c4-0.5,15-1.6,27.2-1.1c1.2,0,2.4,0.5,3.3,1.4
						c5,4.8,12,14.7,19,44.5l-12.8-2.6l4.9,53.2h-41.6l0.2-52.6L226.1,287.6z"/>
					<path d="M275,298.2l-2.7-1c-2.4-2-4.7-4.2-6.4-6.9c-2.8-4.1-4.8-8.8-5.8-13.6c-1-4.8-1.2-9.6-0.9-14.4
						c0.4-4.8,1.1-9.4,2.6-14.1l3,0c-1.1,4.3-1.7,9.8-1.9,14.2c-0.1,4.5,0.4,8.9,1.5,13.2c1.1,4.3,3.1,8.2,5.6,11.6
						c1,1.5,2.3,2.8,3.7,3.9L275,298.2z"/>
				</g>
				<path d="M232.7,263.1c1-4.9,2.6-9.1,4.7-13.7l3.2-0.3c-1.7,4.3-3.4,10.1-4.1,14.8c-0.7,4.7-1,9.4-0.5,13.9
					c0.3,2.4,0.8,4.8,1.6,7l0.5,11.9c-0.9-1.1-1.7-2.3-2.3-3.6c-2.5-4.7-3.8-9.8-4.2-14.9C231.2,273,231.8,268,232.7,263.1z"/>
				<g>
					<g>
						<path class="st8" d="M249.1,330.7l46.8-81.7c3.8-6.6,1.5-15-5.1-18.8l0,0c-6.6-3.8-15-1.5-18.8,5.1L225.2,317
							c-3.8,6.6-1.5,15,5.1,18.8l0,0C236.8,339.6,245.3,337.3,249.1,330.7z"/>
						<g>
							<path class="st28" d="M240.8,308.6c0.4,0.2,1,0.1,1.2-0.3c0.2-0.4,0.1-1-0.3-1.2c-0.4-0.2-1-0.1-1.2,0.3
								C240.3,307.8,240.4,308.4,240.8,308.6z"/>
							<path class="st28" d="M248.2,312.9c0.4,0.2,1,0.1,1.2-0.3c0.2-0.4,0.1-1-0.3-1.2c-0.4-0.2-1-0.1-1.2,0.3
								C247.7,312.1,247.8,312.6,248.2,312.9z"/>
							<path class="st28" d="M236.3,316.5c0.4,0.2,1,0.1,1.2-0.3c0.2-0.4,0.1-1-0.3-1.2c-0.4-0.2-1-0.1-1.2,0.3
								C235.7,315.7,235.9,316.3,236.3,316.5z"/>
							<path class="st28" d="M243.7,320.7c0.4,0.2,1,0.1,1.2-0.3c0.2-0.4,0.1-1-0.3-1.2c-0.4-0.2-1-0.1-1.2,0.3
								C243.1,320,243.3,320.5,243.7,320.7z"/>
						</g>
						<g>
							<path class="st28" d="M274.3,251.2c0.4,0.2,1,0.1,1.2-0.3c0.2-0.4,0.1-1-0.3-1.2c-0.4-0.2-1-0.1-1.2,0.3
								C273.7,250.4,273.9,251,274.3,251.2z"/>
							<path class="st28" d="M281.7,255.4c0.4,0.2,1,0.1,1.2-0.3c0.2-0.4,0.1-1-0.3-1.2c-0.4-0.2-1-0.1-1.2,0.3
								C281.1,254.7,281.3,255.2,281.7,255.4z"/>
							<path class="st28" d="M269.8,259.1c0.4,0.2,1,0.1,1.2-0.3c0.2-0.4,0.1-1-0.3-1.2c-0.4-0.2-1-0.1-1.2,0.3
								C269.2,258.3,269.4,258.8,269.8,259.1z"/>
							<path class="st28" d="M277.2,263.3c0.4,0.2,1,0.1,1.2-0.3c0.2-0.4,0.1-1-0.3-1.2c-0.4-0.2-1-0.1-1.2,0.3
								C276.6,262.5,276.8,263.1,277.2,263.3z"/>
						</g>
					</g>
					<path class="st16" d="M242.7,287.5c0.7-0.9,4.4,1.6,4.7,1.8c0.3,0.2,0.6-0.3,0.3-0.4c-0.4-0.2-5-2.6-4.4-3.5
						c0.4-0.5,1.1,0.2,1.1,0.2s4.1,2.6,4.4,2.2c0.3-0.4-2.1-2-2.9-2.5c-0.8-0.5-0.9-1.1-0.4-1.2c0.4-0.1,3,1.3,3.8,1.8
						c0.8,0.5,3,1.9,2.5,0.3c-0.5-1.6-0.3-3,0-3.3c0.3-0.3,0.9,0,0.9,0.5c-0.1,0.4,0.1,1.1,0.2,1.6c0.1,0.5,0.3,0.9,0.5,1.3
						c0.5,0.8,2.2,3.5,3.3,4.6l13.6,6.3c1.8,0.8,3.6,1.7,5.3,2.7l8.4,4.9c-1.5,2.1-3.9,4.1-5.3,6.3l-24.9-16.9
						c-2.1-0.9-6.9-2.2-8.5-2.9c-2.3-1-2.2-1.2-2-1.5c0.5-0.6,4,1.6,3.6,0.7C246.5,289.5,242.2,288.1,242.7,287.5z"/>
				</g>
			</g>
		</g>
	</g>
	<g>
		<path class="st29" d="M264.7,224.1c0,0,5.1-4.3,2.5-8.2c-2.6-3.9-2-8.4-6.7-7.2c-4.6,1.2-6.3-10.3-12.2-5
			c-5.9,5.3-11.6,1.5-10.3,6.9c1.3,5.4-5.4,7-2.3,9.1c3,2.1,1.5,4.1,4.5,4.2C243.1,224,264.7,224.1,264.7,224.1z"/>
		<g>
			<g>
				<path class="st20" d="M251.8,253.4L251.8,253.4c2.6,0,4.6-2.1,4.6-4.6l0.1-12.5h-9.3l-0.1,12.4
					C247.1,251.4,249.2,253.4,251.8,253.4z"/>
				<g>
					<path class="st2" d="M256.5,242.7l0,6.3c0,2.6-2.1,4.6-4.6,4.6l0,0c-2.6,0-4.7-2.1-4.6-4.7l0-6.7c1.5,1,3.2,1.7,4.9,1.7
						C253.7,244,255.1,243.5,256.5,242.7z"/>
				</g>
			</g>
			<g>
				<g>
					<g>
						<path class="st2" d="M234.7,227.6c0.4,1.8,1.9,3,3.4,2.7c1.5-0.3,2.4-2,2-3.8c-0.4-1.8-1.9-3-3.4-2.7
							C235.2,224.1,234.3,225.8,234.7,227.6z"/>
						<path class="st21" d="M238.9,228.3c0,0-1.1-4.3-2.3-2.6c-1.8,2.6,0.8,1.5,0.8,1.5S237.9,226.9,238.9,228.3z"/>
					</g>
					<g>
						<path class="st2" d="M269.5,227.6c-0.4,1.8-1.9,3-3.4,2.7c-1.5-0.3-2.4-2-2-3.8c0.4-1.8,1.9-3,3.4-2.7
							C268.9,224.1,269.8,225.8,269.5,227.6z"/>
						<path class="st21" d="M265.2,228.3c0,0,1.1-4.3,2.3-2.6c1.8,2.6-0.8,1.5-0.8,1.5S266.2,226.9,265.2,228.3z"/>
					</g>
					<path class="st2" d="M239.4,226c-0.1,6.2,5.7,16.4,12.7,16.4c7,0,12.4-9.8,12.7-16.4c0.4-9-5.7-16.4-12.7-16.4
						C245.1,209.6,239.6,216.9,239.4,226z"/>
				</g>
				<g>
					<path class="st19" d="M251.2,227.4l-3.1-1.9c-0.2-0.1-0.2-0.4,0-0.5l3.1-1.4L251.2,227.4z"/>
					<path class="st30" d="M241.3,224c0,0,2.6,4.8,6-0.5"/>
					<path class="st30" d="M261.1,223.9c0,0-2.5,4.9-6-0.3"/>
				</g>
			</g>
		</g>
		<path class="st29" d="M264.8,224.1c0,0-3.4-4.3-4.9-10.1c0,0-10.5-3.3-12.8-0.7c-2.2,2.7-3.3,3.3-5,3.6c-1.7,0.3,0.1,5.2-2.5,6.9
			c0,0-2.4-15.9,12.3-15.1C266.4,209.4,267.1,217.9,264.8,224.1z"/>
	</g>
</g>
<g>
	<g>
		<g>
			<g>
				<path class="st5" d="M70,332.1c0.7,0.2,1.4,0.4,2,0.6l-10.8,43.9l-2.1-0.4L70,332.1z"/>
			</g>
			<g>
				<g>
					<path class="st1" d="M50.5,443.5c0.9,2.3-0.3,4.9-2.6,5.8c-2.3,0.9-4.9-0.3-5.8-2.6c-0.9-2.3,0.3-4.9,2.6-5.8
						C47,440,49.6,441.1,50.5,443.5z"/>
					<path class="st1" d="M32.8,440.1c0.9,2.3-0.3,4.9-2.6,5.8c-2.3,0.9-4.9-0.3-5.8-2.6c-0.9-2.3,0.3-4.9,2.6-5.8
						C29.3,436.6,31.9,437.7,32.8,440.1z"/>
				</g>
				<g>
					<path class="st31" d="M33.6,393.3l4.7,1.1l-10.8,47l-5-1.1c-1.8-0.4-3-2.3-2.6-4.1l9.6-40.4C29.9,394,31.8,392.9,33.6,393.3z"
						/>
					<path class="st32" d="M64.8,376.4L44.1,373c-2.9-0.5-5.7,1.4-6.4,4.3l-14.3,63.4l27.3,6.3L64.8,376.4z"/>
				</g>
			</g>
		</g>
		<g>
			<g>
				<path class="st23" d="M133.5,441.3c0,0,9.3,5,10.7,9.7c0,0-18.4-3.7-21.7-4.8l0.1-17.7l10.2,0.8L133.5,441.3z"/>
				<path class="st23" d="M96.3,440.5c0,0-9.3,5.1-10.6,9.8c0,0,18.3-3.9,21.7-5l-0.3-17.7l-10.2,0.9L96.3,440.5z"/>
				<polygon class="st1" points="138,314.2 133.4,431.4 121.7,431.4 120.6,334 114.7,334.6 108.1,430.9 95.6,431 98.1,314.7 				"/>
			</g>
			<g>
				<g>
					<g>
						<path class="st33" d="M193.6,306.5l20.4-6.5c1.1-0.3,1.6-1.5,1.3-2.5l-2.3-7.3c-0.3-1.1-1.5-1.6-2.5-1.3l-20.4,6.5
							c-1.1,0.3-1.6,1.5-1.3,2.5l2.3,7.3C191.4,306.2,192.5,306.8,193.6,306.5z"/>
						<path class="st34" d="M199.2,303.7c3.1-0.2,6-1.8,9.1-2.1c0.4,0,0.8-0.1,1.1-0.1l-15.8,5c-1.1,0.3-2.2-0.3-2.5-1.3l-1.6-5.1
							C191.9,302.4,195.6,303.9,199.2,303.7z"/>
						<line class="st35" x1="207.7" y1="289.8" x2="211.2" y2="300.9"/>
						<g>
							<polygon class="st36" points="201.1,298 199.4,297.2 198.2,297.6 199.1,298.7 							"/>
							<path class="st36" d="M202.4,300l-2.3,0.7l-0.8,2.2c0,0,1.2-0.2,1.5-0.5C201.2,302,202.4,300,202.4,300z"/>
							<path class="st36" d="M206.1,299.1c-0.2,0-5.6,2.1-7.6,2.3c-2,0.2-3.2-0.5-3.2-0.5s-0.5,0.9-1.2,0.7l0.4-1.2l-1.6-2.3
								c0.2-0.2,0.4-0.3,0.8-0.1c0.7,0.5,1.4,1,2.2,1.6c3.6-1.2,6.8-2.2,9.4-2.7c0.9,0,1.7,0.1,2.3,0.6c0.1,0.1,0.2,0.3,0.2,0.6
								C207.3,298.6,206.7,298.9,206.1,299.1z"/>
						</g>
						<g>
							<g>
								<line class="st37" x1="206.7" y1="290.2" x2="204.9" y2="293.6"/>
								<line class="st37" x1="205.2" y1="290.7" x2="203.4" y2="294.1"/>
								<line class="st37" x1="203.6" y1="291.2" x2="201.8" y2="294.6"/>
								<line class="st37" x1="202.1" y1="291.7" x2="200.3" y2="295.1"/>
							</g>
						</g>
						<path class="st38" d="M210.5,291.9c0.1,0.3,0.4,0.4,0.7,0.3c0.3-0.1,0.4-0.4,0.3-0.7c-0.1-0.3-0.4-0.4-0.7-0.3
							C210.6,291.3,210.4,291.6,210.5,291.9z"/>
						<path class="st38" d="M211.1,293.8c0.1,0.3,0.4,0.4,0.7,0.3c0.3-0.1,0.4-0.4,0.3-0.7c-0.1-0.3-0.4-0.4-0.7-0.3
							S211.1,293.6,211.1,293.8z"/>
						<path class="st38" d="M211.7,295.8c0.1,0.3,0.4,0.4,0.7,0.3c0.3-0.1,0.4-0.4,0.3-0.7c-0.1-0.3-0.4-0.4-0.7-0.3
							C211.8,295.2,211.7,295.5,211.7,295.8z"/>
						<g>
							<line class="st39" x1="195.4" y1="302.1" x2="191.8" y2="303.3"/>
							<line class="st39" x1="195.6" y1="302.7" x2="192" y2="303.9"/>
							<line class="st39" x1="195.8" y1="303.3" x2="192.2" y2="304.4"/>
							<line class="st39" x1="196" y1="303.9" x2="192.4" y2="305"/>
							<line class="st39" x1="196.1" y1="304.4" x2="192.6" y2="305.6"/>
						</g>
					</g>
					<g>
						<g>
							<g>
								<g>
									<path class="st16" d="M191.1,288.9c0,0,7.9-0.9,9-0.4c1.1,0.5,4,2.9,4,2.9s-0.2,1.8-1.7,1.3c0,0,0,2.1-1.8,1.2
										c0,0,0.2,1.6-1.9,1c0,0,0.6,1.8-1.6,0.9l-4.3,0.4l-3.9-2.6L191.1,288.9z"/>
								</g>
							</g>
							<polygon class="st16" points="191.1,288.9 170.5,292.4 170.2,299.2 188.7,293.4 							"/>
						</g>
						<polygon class="st27" points="146,301.4 183.7,298.4 183,289.3 152.3,291.7 137.9,254.9 126.9,255.1 						"/>
					</g>
				</g>
				<g>
					<path class="st16" d="M71.4,324.2c0,0-5.6,5.5-5.8,6.4c-0.1,0.9,0.4,4,0.4,4s1.4,0.8,1.7-0.4c0,0,1.6,1.1,1.7-0.5
						c0,0,1.2,1,1.6-0.7c0,0,1.1,1.3,1.4-0.6l2.2-2.5l0.1-3.1l6-10.5l-3.5-2.4L71.4,324.2z"/>
					<path class="st27" d="M99.3,254.9c0,0-17.8,50.2-27.2,64.8l6.5,3.9l21.5-41L99.3,254.9z"/>
				</g>
				<polygon class="st27" points="136.3,254.9 99.3,255.1 97.6,315.3 138.3,315 				"/>
			</g>
		</g>
	</g>
	<g>
		<g>
			<ellipse cx="118.3" cy="232.9" rx="13.1" ry="14.8"/>
			<g>
				<g>
					<path class="st20" d="M113.3,256.3v-10h9.3v10c0,2.6-2.1,4.6-4.6,4.6l0,0C115.4,260.9,113.3,258.8,113.3,256.3z"/>
					<path class="st2" d="M113.3,256.3v-4c1.5,1,3.2,1.7,4.9,1.7c1.5,0,3-0.5,4.3-1.3v3.6c0,2.6-2.1,4.6-4.6,4.6l0,0
						C115.4,260.9,113.3,258.8,113.3,256.3z"/>
				</g>
				<g>
					<g>
						<g>
							<path class="st2" d="M100.8,237.5c0.4,1.8,1.9,3,3.4,2.7c1.5-0.3,2.4-2,2-3.8c-0.4-1.8-1.9-3-3.4-2.7
								C101.4,234,100.5,235.7,100.8,237.5z"/>
							<path class="st21" d="M105.1,238.3c0,0-1.1-4.3-2.3-2.6c-1.8,2.6,0.8,1.5,0.8,1.5S104.1,236.9,105.1,238.3z"/>
						</g>
						<g>
							<path class="st2" d="M135.6,237.5c-0.4,1.8-1.9,3-3.4,2.7c-1.5-0.3-2.4-2-2-3.8c0.4-1.8,1.9-3,3.4-2.7
								C135,234,136,235.7,135.6,237.5z"/>
							<path class="st21" d="M131.4,238.3c0,0,1.1-4.3,2.3-2.6c1.8,2.6-0.8,1.5-0.8,1.5S132.4,236.9,131.4,238.3z"/>
						</g>
						<path class="st2" d="M105.6,235.9c-0.1,6.2,5.7,16.4,12.7,16.4c7,0,12.4-9.8,12.7-16.4c0.4-9-5.7-16.4-12.7-16.4
							C111.3,219.5,105.8,226.8,105.6,235.9z"/>
					</g>
					<g>
						<path class="st19" d="M117.3,237.3l-3.1-1.9c-0.2-0.1-0.2-0.4,0-0.5l3.1-1.4L117.3,237.3z"/>
					</g>
				</g>
			</g>
			<g>
				<path class="st40" d="M124.1,233.9c0,0.4,0.2,0.7,0.5,0.7c0.2,0,0.4-0.3,0.4-0.7c0-0.4-0.2-0.7-0.5-0.7
					C124.2,233.2,124.1,233.5,124.1,233.9z"/>
				<path class="st40" d="M111.1,233.9c0,0.4,0.2,0.7,0.5,0.7c0.2,0,0.4-0.3,0.4-0.7c0-0.4-0.2-0.7-0.5-0.7
					C111.3,233.2,111.1,233.5,111.1,233.9z"/>
			</g>
		</g>
		<path class="st41" d="M127.1,225.7c0,0-1.8,7.3,4.3,8.2c0,0,1.5-6.6-0.7-8.9c0,0-1.7-10.9-14.4-9.8c0,0-8,1.1-8.5,5.9
			c0,0-6.8,5.7-2.2,12.9c0,0,4.1-2.3,4.6-7.7C110.3,226.3,123.4,226.3,127.1,225.7z"/>
	</g>
</g>
</svg>
