<?xml version="1.0" encoding="utf-8"?>
<!-- Generator: Adobe Illustrator 23.0.1, SVG Export Plug-In . SVG Version: 6.00 Build 0)  -->
<svg version="1.1" id="Objects" xmlns="http://www.w3.org/2000/svg" xmlns:xlink="http://www.w3.org/1999/xlink" x="0px" y="0px"
	 viewBox="0 0 750 500" style="enable-background:new 0 0 750 500;" xml:space="preserve">
<style type="text/css">
	.st0{fill:#635449;}
	.st1{fill:#7DADB2;}
	.st2{opacity:0.36;}
	.st3{fill:#154593;}
	.st4{opacity:0.23;fill:#154593;}
	.st5{fill:#AD9380;}
	.st6{opacity:0.15;fill:#00143A;}
	.st7{fill:#FCE8CF;}
	.st8{opacity:0.23;}
	.st9{fill:#2B4C60;}
	.st10{fill:#F6BA99;}
	.st11{fill:#EF6C74;}
	.st12{fill:#A0D2DB;}
	.st13{fill:#00143A;}
	.st14{opacity:0.52;}
	.st15{fill:#F2957E;}
	.st16{fill:#F3F0EB;}
	.st17{opacity:0.35;}
	.st18{opacity:0.36;fill:#2B4C60;}
	.st19{fill:#AF4A54;}
	.st20{opacity:0.23;fill:url(#SVGID_1_);}
	.st21{fill:#B4CCE9;}
	.st22{fill:#5ECC95;}
	.st23{fill:#F17F60;}
	.st24{fill:#1F3642;}
	.st25{opacity:0.33;}
	.st26{fill:#FCD588;}
	.st27{fill:#2A4759;}
	.st28{opacity:0.34;fill:url(#SVGID_2_);}
	.st29{fill:#EDB758;}
	.st30{fill:none;stroke:#FAECD4;stroke-width:0.2118;stroke-miterlimit:10;}
</style>
<g>
	<path class="st0" d="M196,403.8l-11.3,16.5c0,0,15.1,19.1,10,17.3c-5-1.8-32.8-27.1-32.8-27.1s13.4-20.4,13.2-20.6
		C174.9,389.8,196,403.8,196,403.8z"/>
	<polygon class="st1" points="212.5,280.6 165,394.5 195.2,413.8 244.5,311.8 241.4,278.3 	"/>
	<g class="st2">
		<path class="st3" d="M168.6,396.8c0,0,0.2-0.4,0.6-1.1c0.3-0.8,0.8-1.8,1.4-3.2c0.6-1.4,1.4-3,2.3-5c0.9-1.9,1.9-4.1,3-6.5
			c4.6-9.7,10.9-23,17.9-37.8c7-14.8,13.3-28.2,17.7-38c1.1-2.5,2.1-4.7,2.9-6.6c0.8-2,1.5-3.7,2.1-5.1c0.6-1.4,1-2.5,1.2-3.3
			c0.3-0.7,0.4-1.1,0.4-1.2c0,0-0.2,0.4-0.6,1.1c-0.3,0.8-0.8,1.8-1.4,3.2c-0.6,1.4-1.4,3-2.3,5c-0.9,1.9-1.9,4.1-3,6.5
			c-4.6,9.7-10.9,23-17.9,37.8c-7,14.7-13.3,28.1-17.6,37.9c-1.1,2.5-2.1,4.7-2.9,6.6c-0.8,2-1.5,3.7-2.1,5.1
			c-0.6,1.4-1,2.5-1.2,3.3C168.7,396.4,168.6,396.8,168.6,396.8z"/>
	</g>
	<polygon class="st4" points="220.2,362 218.1,366.5 209.4,288.1 211.5,282.9 219.5,282.7 222.6,319.7 	"/>
	<g>
		<g>
			<polygon class="st5" points="89.5,316 54,454.7 49.9,454.7 77.2,315.6 			"/>
			<polygon class="st5" points="153.7,316.7 180.7,452.3 175.9,452.3 139.7,316.7 			"/>
			<polygon class="st5" points="122,313.6 117.9,452.3 112.2,452.3 109.7,314.1 			"/>
			<polygon class="st5" points="154.9,371.6 73.8,368.7 73.3,378.3 161,382.1 			"/>
			<polygon class="st6" points="153.7,316.7 155,323.7 141.5,323.7 139.9,316.7 			"/>
			<polygon class="st6" points="122,317 121.8,323.7 109.9,323.7 109.7,315.7 			"/>
			<polyline class="st6" points="120.3,369.9 120.1,379.8 125.2,379.8 127.2,370.2 119,369.9 			"/>
			<polygon class="st6" points="109.9,370.1 109.9,379.9 106,379.8 104.8,369.9 			"/>
		</g>
		<polygon class="st6" points="89.5,314.1 88.2,319 76.1,319 77.2,313.6 		"/>
	</g>
	<path class="st7" d="M181.6,306.1c-11.5-6.4-58.2-3-58.2-3s13.2-185.8-3.9-187.3c-17-1.5-55.6-15.4-62.5,12.7
		c-7.3,29.5,2.6,187.4,12.3,185.8c22.2-3.5,90.9,5.5,111.5,0C186.2,312.9,181.6,306.1,181.6,306.1z"/>
	<g class="st8">
		<path class="st9" d="M71.7,131.7c-0.1,0-0.4,0.5-1,1.5c-0.3,0.5-0.6,1.2-1,1.9c-0.4,0.8-0.7,1.7-1.1,2.8c-1.6,4.2-3.3,10.6-4,18.8
			c-0.8,8.1-0.8,17.8-0.7,28.6c0.2,10.7,0.7,22.5,1.6,34.9c0.9,12.3,1.9,24.1,2.9,34.7c1,10.7,1.9,20.3,3.2,28.3
			c1.3,8,2.9,14.4,4.3,18.7c1.4,4.3,2.4,6.5,2.5,6.5c0.2-0.1-0.5-2.4-1.6-6.8c-1.1-4.3-2.4-10.7-3.5-18.7c-1.1-8-1.9-17.5-2.7-28.2
			c-0.9-10.7-1.8-22.4-2.7-34.7c-0.8-12.3-1.5-24-1.8-34.7c-0.3-10.7-0.4-20.3,0.2-28.3c0.5-8,1.9-14.4,3.2-18.6
			C70.9,134,71.9,131.8,71.7,131.7z"/>
	</g>
	<path class="st10" d="M244.5,198.5l4.2-2.6c0,0,2.7-1.1,7.2-4.2c1.2-0.8,2.2-1.8,3.1-3c1.1-1.4,2.4-3.3,2.9-4.6
		c0.6-1.6,2.5-1.7,2.8-0.3c0.3,1.5-1.2,5.9-4.8,9.9c-3.6,4,3.9,2.8,6.7,2.4c2.7-0.4,11.2-1.1,11.9-0.2c1,1.3-0.1,2.9-2.8,3.2
		c-2.8,0.3-10.9,1.9-10.8,3.5c0.1,1.6,14.1-0.5,14.1-0.5s3-1,3.1,0.9c0.3,3.4-14.5,4.4-16,4.5c-1,0-0.9,1.8,0.1,1.7
		c1.1-0.1,13.9-2.5,14.3,0.9c0.3,2.6-12.2,1-14.8,3.1c-2.6,2.2,9.7,0.1,9.9,2.6c0.1,0.9,0,1.7-7.1,1.7c-7.3,0-26.6-3.6-26.6-3.6
		l2.8-15.6"/>
	<g>
		<path class="st11" d="M148.9,132.4c0,0,36.5,55.7,44.9,58.2c8.4,2.5,56.2,5.8,56.2,5.8l4.3,23.6c0,0-61.2,3.7-74.7-7.6
			c-21.2-17.8-43.5-58.7-43.5-58.7C135.5,140.1,140.1,133.3,148.9,132.4z"/>
	</g>
	<path class="st0" d="M248.2,424.2l-2.3,20.7c0,0,21.5,7.7,16.4,9.1c-5.1,1.4-40.4-4.4-40.4-4.4s2.4-25.3,2.1-25.3
		C223.7,424.3,248.2,424.2,248.2,424.2z"/>
	<path class="st12" d="M100.1,236.6c0,0-20.3,49.4,19.8,66.3l21.4-52.9L100.1,236.6z"/>
	<path class="st12" d="M128,249.7c0,0,115.7-36.1,128.7-5.8c13,30.3-2.5,188.3-2.5,188.3l-36.2-4.3c0,0,6-138.7,0-143.6
		c-6-4.9-89.4,19.1-98.2,18.6C98.6,301.9,83.5,256.7,128,249.7z"/>
	<path class="st11" d="M125.6,117.5c15.2,0.4,27.6,14.1,28.3,31.3c0.6,14.4-0.7,34.1,2.8,51.4c1.8,8.9,12,44.8,12,44.8l-10.3,1.9
		c-15.9,3-32.1,2.1-47.7-2.7L99,240.6c0,0-6.7-39.9-10.5-77.4c-3.2-31.3,2.1-43.5,18.8-46.2L125.6,117.5z"/>
	<path class="st10" d="M133.5,119.7c-0.5-3,0.3-15.8,0.3-15.8s10.2-1.5,10.7-13.1c0.4-11.6-0.7-38.2-0.7-38.2L125,42.6l-20.2,18.2
		l-1.9,12.8l4.7,15.2l2.1,29L133.5,119.7z"/>
	<g>
		<path class="st13" d="M125.2,70.8c0.5,0.4,0.6,1.1,0.3,1.6c-0.3,0.5-0.9,0.7-1.4,0.3c-0.5-0.4-0.6-1.1-0.3-1.6
			C124,70.6,124.7,70.4,125.2,70.8z"/>
		<g>
			<path class="st13" d="M127.1,70.3c-0.2,0.2-1.1-0.7-2.5-0.8c-1.4-0.1-2.4,0.7-2.6,0.5c-0.1-0.1,0.1-0.5,0.5-0.8
				c0.4-0.4,1.2-0.7,2.1-0.7c0.9,0,1.6,0.5,2,0.9C127.1,69.8,127.2,70.2,127.1,70.3z"/>
		</g>
	</g>
	<g>
		<path class="st13" d="M142,70.8c0.5,0.4,0.6,1.1,0.3,1.6c-0.3,0.5-0.9,0.7-1.4,0.3c-0.5-0.4-0.6-1.1-0.3-1.6
			C140.9,70.6,141.6,70.4,142,70.8z"/>
		<g>
			<path class="st13" d="M144,70.3c-0.2,0.2-1.1-0.7-2.5-0.8c-1.4-0.1-2.4,0.7-2.6,0.5c-0.1-0.1,0.1-0.5,0.5-0.8
				c0.4-0.4,1.2-0.7,2.1-0.7c0.9,0,1.6,0.5,2,0.9C143.9,69.8,144.1,70.2,144,70.3z"/>
		</g>
	</g>
	<g>
		<path class="st13" d="M133.1,84.1c0,0.1,0.9,0.1,2.3,0c0.2,0,0.4,0,0.6-0.1c0.2-0.1,0.5-0.3,0.6-0.6c0.2-0.6,0-1.1-0.2-1.6
			c-0.3-1-0.6-2.1-1-3.3c-0.7-2.3-1.4-4.4-1.9-6c-0.5-1.5-0.9-2.4-0.9-2.4c-0.1,0,0.2,1,0.6,2.5c0.4,1.5,1,3.7,1.8,6
			c0.4,1.2,0.7,2.3,1,3.3c0.2,0.5,0.3,1,0.2,1.3c-0.1,0.3-0.5,0.4-0.8,0.4C134,83.9,133.1,84.1,133.1,84.1z"/>
	</g>
	<g class="st14">
		<path class="st15" d="M126.6,80.3c0,1.3-1.8,2.3-3.9,2.4c-2.2,0.1-4-0.7-4.1-2c-0.1-1.3,1.7-2.6,3.9-2.7
			C124.8,77.9,126.6,79,126.6,80.3z"/>
	</g>
	<path class="st16" d="M128.5,85.7c-1.4-1,4,2.6,6.8,2.5c0,0-1.7,2.9-4.6,1.6C127.7,88.5,128.5,85.7,128.5,85.7z"/>
	<path class="st15" d="M133.9,103.9c0,0-6.9,0.2-13.6-4.9c0,0,3.2,8.4,13.4,7.7L133.9,103.9z"/>
	<path class="st10" d="M156.3,237.9l4.8-0.3c0,0,2.9,0.3,8.1-0.4c1.3-0.2,2.7-0.6,3.9-1.2c1.5-0.8,3.5-1.9,4.4-2.8
		c1.1-1.2,2.9-0.4,2.7,1.1s-3.3,4.8-8,6.7c-4.7,1.9,2.6,4.4,5.2,5.4c2.6,1,10.6,4.4,10.9,5.5c0.5,1.6-1.1,2.5-3.7,1.5
		c-2.6-1-10.6-3.5-11.1-2c-0.5,1.5,13,6.2,13,6.2s3.1,0.5,2.5,2.3c-0.9,3.2-14.8-2.9-16.1-3.5c-0.9-0.4-1.5,1.2-0.5,1.6
		c1,0.4,13.5,4.4,12.6,7.6c-0.7,2.5-11.5-4.9-14.6-4.2c-3.1,0.7,8.8,4.7,8,7.1c-0.3,0.9-0.6,1.5-7.1-1.8
		c-6.6-3.4-22.9-15.9-22.9-15.9l8.3-12.8"/>
	<g class="st17">
		<path class="st3" d="M109.7,263.5c0.1,0.1,1.7-0.9,4.5-2.6c2.7-1.6,6.6-3.7,10.9-5.6c4.4-1.8,8.5-3.1,11.5-3.9
			c3-0.8,4.9-1.2,4.9-1.4c0-0.1-1.9,0-5,0.6c-3.1,0.6-7.2,1.7-11.7,3.6c-4.4,1.9-8.3,4.1-10.9,5.9
			C111.2,262,109.6,263.4,109.7,263.5z"/>
	</g>
	<g class="st17">
		<path class="st3" d="M104.5,256.1c0.1,0.3,3.5-0.6,7.7-0.4c4.2,0.1,7.6,1.4,7.7,1c0.1-0.3-3.2-2.1-7.6-2.2
			C107.8,254.3,104.4,255.8,104.5,256.1z"/>
	</g>
	<path class="st18" d="M141.7,248.7c0,0-22.7-7.4-37.2-22.7c-11.5-12.2-11.3-23.5-11.3-23.5L87.7,155L141.7,248.7z"/>
	<g class="st2">
		<path class="st3" d="M105.7,296.2c0,0,0.2,0,0.7-0.1c0.4-0.1,1.1-0.3,1.9-0.5c1.7-0.5,4.2-1.1,7.4-2c6.4-1.7,15.6-4.2,27.1-7
			c11.5-2.8,25.2-6,40.4-9.2c7.6-1.6,15.7-3.2,24-4.7c2.1-0.4,4.2-0.8,6.3-1.1c2.1-0.4,4.2-0.7,6.3-0.4c2.1,0.2,4.1,1.3,5.5,3
			c1.4,1.7,2.3,4,2.9,6.4c0.6,2.4,1,4.9,1.2,7.4c0.3,2.5,0.5,5,0.8,7.4c0.2,2.5,0.4,4.9,0.6,7.3c0.2,2.4,0.3,4.8,0.5,7.2
			c0.6,9.6,0.8,18.8,0.8,27.6c0,17.6-0.8,33.5-1.6,46.8c-0.8,13.3-1.6,24.1-2.2,31.5c-0.3,3.7-0.5,6.6-0.6,8.6
			c-0.1,1-0.1,1.7-0.1,2.2c0,0.5,0,0.8,0,0.8c0,0,0.1-0.3,0.1-0.8c0.1-0.5,0.1-1.3,0.2-2.2c0.2-2,0.5-4.8,0.8-8.5
			c0.7-7.4,1.6-18.2,2.5-31.5c0.9-13.3,1.7-29.2,1.8-46.9c0-8.8-0.2-18.1-0.8-27.7c-0.2-2.4-0.3-4.8-0.5-7.3
			c-0.2-2.4-0.4-4.9-0.6-7.4c-0.3-2.5-0.5-4.9-0.8-7.4c-0.3-2.5-0.6-5-1.2-7.5c-0.6-2.5-1.6-5-3.2-6.9c-0.8-1-1.8-1.8-2.8-2.3
			c-1.1-0.6-2.2-0.9-3.3-1c-2.3-0.3-4.5,0.1-6.6,0.5c-2.1,0.4-4.2,0.8-6.3,1.2c-8.3,1.6-16.4,3.2-24,4.8c-15.3,3.2-29,6.5-40.4,9.4
			c-11.5,2.9-20.7,5.5-27,7.4c-3.2,0.9-5.6,1.7-7.3,2.2c-0.8,0.3-1.5,0.5-1.9,0.6C105.9,296.1,105.6,296.2,105.7,296.2z"/>
	</g>
	<g class="st2">
		<path class="st3" d="M217.7,283.9c0.2,0.2,2-1.3,4.1-3.4c0.3-0.3,0.5-0.5,0.7-0.8l-0.7-0.8c-1.5,1.9-2.6,3.5-2.4,3.7
			c0.2,0.2,1.5-1.1,3.1-2.9l-0.7-0.8c-0.2,0.3-0.5,0.5-0.8,0.8C219,281.8,217.5,283.7,217.7,283.9z"/>
	</g>
	<g class="st2">
		<path class="st3" d="M217.1,284c0.3,0.1,0.9-2.1,1.4-4.9c0.5-2.8,0.7-5.1,0.4-5.2c-0.3-0.1-0.9,2.1-1.4,4.9
			C217,281.6,216.9,283.9,217.1,284z"/>
	</g>
	<path class="st11" d="M110.1,121.1c0,0,4.3,69.3,10.2,76.5c5.9,7.2,44.6,39.3,44.6,39.3l-7.6,22.5c0,0-53.3-34.4-59.3-52.2
		c-7.2-21.5-8.6-54.9-8.8-69.2c-0.1-6,2.1-11.9,6.2-15.7C99.9,118.3,104.8,118,110.1,121.1z"/>
	<g class="st8">
		<path class="st9" d="M80.5,308c0.1,0.8,10.7-1.1,23.9-2.3c13.2-1.2,23.9-1.3,23.9-2.1c0-0.7-10.8-1.8-24.1-0.6
			C90.8,304.2,80.3,307.4,80.5,308z"/>
	</g>
	<g class="st8">
		<path class="st9" d="M84.5,186.2c0.1,0.1,0.5,0,0.7-0.8c0.2-0.7-0.2-1.9-1.1-2.7c-0.5-0.4-1.1-0.7-1.9-0.6
			c-0.4,0.1-0.8,0.2-1.1,0.4c-0.3,0.2-0.7,0.5-0.9,0.9c-1,1.4-1.3,3.4-0.8,5.2c0.6,1.8,1.8,3.2,3.4,3.6c0.4,0.1,0.8,0.1,1.2,0.1
			c0.4,0,0.8-0.2,1.1-0.4c0.6-0.4,1-1,1.3-1.6c0.5-1.2,0.3-2.3-0.1-2.9c-0.4-0.6-0.8-0.6-0.9-0.5c-0.1,0.2,0,0.5,0,0.9
			c0,0.4-0.1,1-0.5,1.5c-0.2,0.3-0.5,0.5-0.7,0.6c-0.1,0-0.2,0.1-0.4,0c-0.2,0-0.3,0-0.5-0.1c-0.7-0.2-1.4-1.1-1.7-2
			c-0.3-0.9-0.2-2.1,0.2-2.8c0.4-0.7,0.8-0.8,1.4-0.6c0.6,0.2,0.9,0.7,1,1C84.4,185.7,84.3,186.1,84.5,186.2z"/>
	</g>
	<g>
		<path class="st19" d="M112.2,143c-0.1,0-0.2,1.6-0.2,4.5c0,2.9,0.1,7.1,0.4,12.2c0.3,5.2,0.9,11.3,2.3,18c1.3,6.7,3.6,14,7.5,20.7
			c3.9,6.7,8.9,12,13.6,16.2c4.8,4.2,9.3,7.6,13,10.5c7.5,5.7,11.8,9.8,12,9.5c0.1-0.1-0.9-1.3-2.7-3.3c-1.9-2-4.7-4.6-8.4-7.7
			c-3.6-3.1-8-6.6-12.6-10.9c-4.6-4.3-9.3-9.4-13.1-15.8c-3.7-6.5-5.9-13.4-7.3-19.9c-1.4-6.5-2.2-12.6-2.7-17.7
			C112.9,149.4,112.5,143,112.2,143z"/>
	</g>
	<polygon class="st19" points="124.5,121.4 123.7,111.1 109,108 104.5,119 	"/>
	<polyline class="st19" points="133.9,109.9 128.1,111.1 128.1,121.4 135.4,119.7 133.6,108 	"/>
	<g>
		<g>
			<g>
				<path class="st19" d="M148.2,224.3c0,0-0.2-0.3-0.4-1c-0.2-0.7-0.6-1.7-1-3c-0.9-2.6-2.1-6.3-3.4-11c-2.8-9.3-6.2-22.4-9.3-36.9
					c-3.1-14.6-5.2-27.9-6.4-37.5c-0.6-4.8-1.1-8.8-1.3-11.5c-0.1-1.4-0.2-2.4-0.3-3.1c0-0.7-0.1-1.1,0-1.1c0,0,0.1,0.4,0.2,1.1
					c0.1,0.7,0.3,1.8,0.5,3.1c0.4,2.7,1,6.6,1.7,11.4c1.5,9.6,3.7,22.9,6.8,37.4c3.1,14.5,6.4,27.6,9,37c1.3,4.7,2.3,8.5,3.1,11.1
					c0.4,1.3,0.6,2.3,0.8,3C148.1,223.9,148.2,224.3,148.2,224.3z"/>
			</g>
		</g>
	</g>
	<g>
		<g>
			<g>
				<path class="st19" d="M155.1,190.2c-0.1,0-0.7-1.7-1.3-4.6c-0.6-2.9-1.4-6.9-1.8-11.3c-0.5-4.5-0.6-8.5-0.6-11.5
					c0-2.9,0.2-4.7,0.3-4.7c0.3,0,0.5,7.2,1.4,16.1C154,183.1,155.4,190.2,155.1,190.2z"/>
			</g>
		</g>
	</g>
	<polygon class="st19" points="254.3,219.9 250,196.3 241.9,195.8 246.4,220.5 	"/>
	<polygon class="st19" points="157.4,259.4 165.7,234.8 157.9,231.5 150.9,255.1 	"/>
	<g>
		<g>
			<rect x="6.9" y="231" class="st5" width="372.8" height="13.9"/>
			<polygon class="st5" points="350.6,244.8 379.7,453.3 365.1,453.6 315.1,244.8 			"/>
			<polyline class="st5" points="34.1,242.6 17.1,457.6 30.7,457.6 67.4,251.5 69.3,236.1 34.1,242.6 			"/>
			<polygon class="st6" points="68.2,244.8 66.9,254.4 33.2,253 33.9,244.8 			"/>
			<polygon class="st6" points="350.6,244.8 351.9,254.7 317.2,253.6 315.1,244.8 			"/>
		</g>
	</g>
	<g>
		
			<linearGradient id="SVGID_1_" gradientUnits="userSpaceOnUse" x1="164.7206" y1="241.4734" x2="367.6447" y2="126.3005" gradientTransform="matrix(-1 0 0 1 517.0143 0)">
			<stop  offset="0" style="stop-color:#FFFFFF"/>
			<stop  offset="1" style="stop-color:#FFFFFF;stop-opacity:0"/>
		</linearGradient>
		<polygon class="st20" points="323.5,152.8 183.3,90.7 110.1,93.7 111.1,152.8 196.6,225.5 244.6,223.4 		"/>
		<polygon class="st21" points="323.9,153.8 300.7,231 195.5,231 196.3,227 238.8,225.5 258.4,153.8 		"/>
		<path class="st16" d="M277.3,191.2c-0.7,3.2,0.5,6.3,2.7,6.9c2.2,0.7,4.5-1.4,5.2-4.5c0.7-3.2-0.5-6.3-2.7-6.9
			C280.3,186,278,188,277.3,191.2z"/>
	</g>
	<g>
		<g>
			<path class="st22" d="M74.7,207.2c3.1-12.1,4.5-29,5.3-41.5c0.2-2.5,0.3-5-0.5-7.3c-0.8-2.3-2.7-4.3-4.8-4.3
				c-1.8,0-3.4,1.5-4.4,3.3c-0.9,1.8-1.3,3.9-1.6,5.9c-2,11.6-4,23.2-6,34.8c-1.9-4.1-4.4-7.9-7.4-11.1c-1.3-1.4-3.3-2.8-4.9-1.8
				c-1.4,0.9-1.6,3.2-1.6,5.1c0.2,5.7,0.8,11.4,1.9,16.9"/>
		</g>
		<path class="st3" d="M79,206c0,0,5.3,23.6-16,24.7c-19.6,1-14.8-24.7-14.8-24.7H79z"/>
	</g>
	<g>
		<path class="st13" d="M120.3,63.3c0,0-0.2,0.1-0.5,0.3c-0.3,0.2-0.7,0.5-1.2,1c-1,0.9-2.2,2.7-2.6,5.4c-0.2,1.3-0.2,2.8,0.3,4.3
			c0.4,1.5,1.2,3,2.4,4.2c0.6,0.6,1.2,1.1,2,1.5c0.7,0.4,1.5,0.7,2.4,0.8c1.7,0.3,3.5-0.1,5.1-1c1.6-1,2.8-2.5,3.5-4.3
			c0.4-0.9,0.6-1.8,0.7-2.7c0.1-0.9,0.1-1.8,0-2.7c-0.2-1.8-0.9-3.3-1.8-4.5c-0.9-1.2-2-2.1-3-2.6c-2.2-1.1-4.2-0.9-5.4-0.4
			c-0.6,0.2-1.1,0.4-1.4,0.6C120.5,63.2,120.3,63.3,120.3,63.3c0,0.1,0.6-0.4,1.9-0.7c1.2-0.3,3.1-0.5,5.2,0.6c1,0.5,2,1.4,2.9,2.5
			c0.8,1.2,1.5,2.6,1.6,4.3c0.1,0.8,0.1,1.7,0,2.6c-0.1,0.9-0.3,1.7-0.7,2.6c-0.7,1.7-1.9,3.1-3.3,4c-1.5,0.9-3.2,1.3-4.8,1
			c-0.8-0.1-1.6-0.4-2.2-0.7c-0.7-0.4-1.3-0.8-1.9-1.4c-1.1-1.1-1.9-2.5-2.3-3.9c-0.4-1.4-0.5-2.8-0.3-4.1c0.3-2.5,1.5-4.3,2.4-5.3
			C119.7,63.8,120.4,63.4,120.3,63.3z"/>
	</g>
	<g>
		<path class="st13" d="M143.1,61.5c0,0-0.2,0-0.5,0c-0.3,0-0.8,0.1-1.5,0.3c-1.2,0.4-3.1,1.3-4.4,3.5c-0.7,1.1-1.2,2.4-1.4,4
			c-0.2,1.5-0.1,3.3,0.5,4.9c0.3,0.8,0.7,1.6,1.2,2.3c0.5,0.7,1.1,1.4,1.8,1.9c1.4,1.1,3.2,1.7,4.9,1.6c1.8-0.1,3.5-0.8,4.8-2
			c0.7-0.6,1.2-1.3,1.7-2.1c0.5-0.8,0.8-1.6,1-2.4c0.5-1.7,0.5-3.4,0.2-4.9c-0.3-1.5-0.9-2.8-1.7-3.9c-1.5-2.1-3.4-2.9-4.6-3.1
			c-0.6-0.1-1.1-0.2-1.5-0.2C143.3,61.5,143.1,61.5,143.1,61.5c0,0.1,0.7,0,2,0.3c1.2,0.3,3,1.2,4.4,3.2c0.7,1,1.3,2.2,1.6,3.7
			c0.3,1.5,0.3,3.1-0.2,4.7c-0.2,0.8-0.6,1.6-1,2.3c-0.4,0.7-1,1.4-1.6,1.9c-1.2,1.1-2.9,1.8-4.6,1.9c-1.7,0-3.4-0.5-4.7-1.5
			c-0.7-0.5-1.2-1.1-1.7-1.8c-0.5-0.7-0.9-1.4-1.1-2.2c-0.6-1.5-0.7-3.2-0.5-4.7c0.2-1.5,0.7-2.8,1.3-3.8c1.3-2.1,3-3.1,4.2-3.5
			C142.4,61.5,143.1,61.6,143.1,61.5z"/>
	</g>
	<g>
		<path class="st13" d="M135.5,71.7c0-0.2-0.8-0.2-1.7-0.2c-1,0-1.7,0.2-1.7,0.3c0,0.1,0.8,0.2,1.7,0.2
			C134.8,72,135.6,71.8,135.5,71.7z"/>
	</g>
	<g>
		<path class="st13" d="M116.5,72.4c0-0.1-1.9-0.2-4.2-0.1c-2.3,0.1-4.2,0.3-4.1,0.4c0,0.1,1.9,0.2,4.2,0.1
			C114.6,72.8,116.5,72.6,116.5,72.4z"/>
	</g>
	<g>
		<path class="st13" d="M108.2,90.7c-5.5-6.7-6-16.6-6.1-25.8c0-4.4,0.1-9,2.1-12.8c1.9-3.7,5.3-6.2,8.8-7.9
			c5.4-2.6,11.4-3.9,17.1-2.7c5.7,1.2,11.2,5.1,14,10.9c0,0-26.5-0.6-28.3,0.6c-1.7,1.2-7.2,5.5-6.8,10.9c0.4,5.4,1.8,13.3,1.8,13.3
			l-4.3-0.7c0,0,0.3-7.3-1.5-7.1C103.4,69.7,108.2,90.7,108.2,90.7z"/>
	</g>
	<g>
		<path class="st10" d="M107,78.3c-0.2,0.9-1,1.4-1.8,1.4c-0.8,0-1.5-0.5-2.1-1c-1.3-1.1-2.3-2.7-2.5-4.6c-0.2-1.8,0.5-3.8,1.9-4.7
			c1.4-0.9,3.4-0.5,4.3,1.1L107,78.3z"/>
	</g>
	<path class="st7" d="M373.3,232.9v-16.6l-7.4-1.8l7.4-5.2v-15.7h-78.6v9.4l-4.4,0c0.7,0.9-1.4,2.1-0.5,2.5c1.6,0.7,5.4,1.7,5.4,1.7
		l-1,6.6l4.4,1.1l-5.9,4.7l-1,12.4l81.5,1.9"/>
</g>
<g>
	<g>
		<path class="st23" d="M697.9,33.7c2.2,8.4,4.4,16.9,6.6,25.3c0.3,1.2,0.6,2.3,0.6,3.5c-0.1,3.6-3,6.4-6.1,7
			c-3.1,0.7-6.2-0.3-9.3-1.2c-0.8,3.6-4.6,5.2-7.8,5.9c-14.4,3.1-29.7,0.9-43-6.1c5.7-9.3,10.4-19.5,13.9-30.1
			c11.3,0.6,22.6,1.1,33.9,1.7c2,0.1,4.1,0.2,5.9-0.6c1.9-0.8,3.6-2.6,3.7-4.9"/>
	</g>
	<g>
		<path class="st15" d="M566.6,144.9l-3.4-4.4c0,0-2.4-2.3-5.8-7.2c-0.9-1.3-1.5-2.7-2-4.3c-0.5-1.9-1.2-4.4-1.1-5.9
			c0-1.9-1.9-2.8-2.8-1.5c-0.9,1.3-1.1,6.5,0.9,12c2.1,5.5-5.3,1.1-8-0.4c-2.7-1.5-11.2-5.9-12.3-5.3c-1.6,0.8-1.1,2.9,1.6,4.4
			c2.8,1.5,10.6,6.5,9.8,8.1c-0.8,1.6-14.4-6.5-14.4-6.5s-2.7-2.3-3.6-0.5c-1.7,3.2,13.3,10.6,14.8,11.2c1,0.5,0.2,2.2-0.8,1.7
			c-1.1-0.6-13.4-8.4-15.2-5.1c-1.4,2.5,12.3,6.2,14.1,9.4c1.8,3.2-10.1-4-11.4-1.5c-0.5,0.9-0.7,1.7,6.7,4.7
			c7.5,3.1,29.2,7.7,29.2,7.7l3.5-16.9"/>
		<path class="st15" d="M627.7,105c0,0-12.4,40.5-16.2,40.9c-26,2.7-54.3-10.1-54.3-10.1l-7.1,22.8c0,0,73.6,37.4,89.5,1.3
			c16.9-38.3,16-44.3,16-44.3L627.7,105z"/>
	</g>
	<path class="st24" d="M629.4,334.2c13.2,68.9,100,132.9,100,132.9l14.8-20.6c0,0-69.8-70.7-72.8-102.2c-3-31.5,20.2-80.8,20.2-80.8
		l-24-11.6L629.4,334.2z"/>
	<path class="st10" d="M658.7,83.2c0.4-2.8-0.6-14.7-0.6-14.7s-9.5-1.1-10.1-11.9c-0.6-10.8,0-35.6,0-35.6l17.4-9.7l19.1,16.5
		l-2.9,53.8L658.7,83.2z"/>
	<path class="st23" d="M683.2,36.1c0,0-15.6-1.7-18.4-17.8l-16.9,17.8c0,0-5.1-11.9,4.2-23c9.4-11.1,15.8-8.8,19.5-8.8
		c3.4,0,20.8,4.2,26,26.6c0.4,1.6,0.7,5.7,0.9,7.5L683.2,36.1z"/>
	<g>
		<path class="st13" d="M650,39c0,0.8,0.5,1.4,1.2,1.4c0.7,0,1.2-0.6,1.2-1.4c0-0.8-0.5-1.4-1.2-1.4C650.6,37.7,650,38.3,650,39z"/>
		<g>
			<path class="st13" d="M648.9,37.5c0.2,0.2,1.1-0.7,2.4-0.8c1.3-0.1,2.3,0.6,2.4,0.4c0.1-0.1-0.1-0.4-0.5-0.8
				c-0.4-0.3-1.1-0.6-1.9-0.6c-0.8,0.1-1.5,0.5-1.9,0.8C648.9,37.1,648.8,37.5,648.9,37.5z"/>
		</g>
	</g>
	<g>
		<path class="st13" d="M664.1,39c0,0.8,0.5,1.4,1.2,1.4c0.7,0,1.2-0.6,1.2-1.4c0-0.8-0.5-1.4-1.2-1.4
			C664.6,37.7,664.1,38.3,664.1,39z"/>
		<g>
			<path class="st13" d="M663.3,37.5c0.2,0.2,1.1-0.7,2.4-0.8c1.3-0.1,2.3,0.6,2.4,0.4c0.1-0.1-0.1-0.4-0.5-0.8
				c-0.4-0.3-1.1-0.6-1.9-0.6c-0.8,0.1-1.5,0.5-1.9,0.8C663.4,37.1,663.2,37.5,663.3,37.5z"/>
		</g>
	</g>
	<g>
		<path class="st13" d="M658.6,50.1c0-0.1-0.8-0.2-2.1-0.3c-0.3,0-0.7-0.1-0.7-0.4c-0.1-0.3,0-0.7,0.2-1.2c0.3-1,0.6-2,0.9-3.1
			c0.6-2.2,1.2-4.2,1.5-5.6c0.4-1.4,0.6-2.4,0.5-2.4c-0.1,0-0.4,0.8-0.8,2.3c-0.5,1.4-1,3.4-1.7,5.6c-0.3,1.1-0.6,2.1-0.9,3.1
			c-0.1,0.5-0.3,1-0.1,1.6c0.1,0.3,0.3,0.5,0.6,0.5c0.2,0.1,0.4,0.1,0.6,0.1C657.8,50.2,658.6,50.2,658.6,50.1z"/>
	</g>
	<g class="st25">
		<path class="st15" d="M664.9,50.8c0,1.2,1.7,2.1,3.7,2.2c2,0,3.7-0.7,3.8-2c0.1-1.2-1.6-2.4-3.7-2.5
			C666.5,48.5,664.8,49.6,664.9,50.8z"/>
	</g>
	<path class="st16" d="M662.9,51.5c1.3-1-3.6,2.5-6.3,2.5c0,0,1.6,2.7,4.3,1.4C663.7,54,662.9,51.5,662.9,51.5z"/>
	<path class="st15" d="M658.3,68.5c0,0,6.4,0.1,12.5-4.8c0,0-2.8,7.9-12.3,7.5L658.3,68.5z"/>
	<path class="st26" d="M638.6,204.6c0,3.9,1.2,9.2,1.2,9.2l67.2,22c0,0,4.8-34.5-7.5-53.7c-5.6-8.8-4.4-21.2-2.1-31.8l7.9-36.2
		l-10.5-34l-42.3,3.3c0,0-24.5-2.8-33.1,34l15.7,26.9l0.2,10.1L638.6,204.6z"/>
	<path class="st27" d="M704.1,191.1c0.7,0,12.9,31,1.9,49.5c-1,1.7-3.5,5.9-6.9,11.9c-16.3,28.4-53.5,95.2-54.7,104.9
		c-1.5,11.8-31.5,136.3-31.5,136.3l-22.3-4l18.2-141.2l29.9-143.9L704.1,191.1z"/>
	<path class="st23" d="M665.3,17c0,0-3.5,7.6-2,13.4l-15.2,4.5C648.1,34.8,644.7,12.9,665.3,17z"/>
	<path class="st23" d="M698.5,36.7c0,0,1.9,24.8-16.5,29.2l1.2-29.9L698.5,36.7z"/>
	<g>
		
			<linearGradient id="SVGID_2_" gradientUnits="userSpaceOnUse" x1="863.5645" y1="382.2792" x2="784.7645" y2="355.8813" gradientTransform="matrix(-0.9978 6.670000e-02 6.670000e-02 0.9978 1378.295 -300.5446)">
			<stop  offset="0" style="stop-color:#FFFFFF"/>
			<stop  offset="0.2316" style="stop-color:#FFFFFF;stop-opacity:0.7684"/>
			<stop  offset="1" style="stop-color:#FFFFFF;stop-opacity:0"/>
		</linearGradient>
		<polygon class="st28" points="657.9,143.8 602.7,60.7 499.4,113.8 541.2,159 588.3,167.9 		"/>
		<polygon class="st21" points="628.9,152.2 591.2,170.3 529.5,171.8 499.4,113.8 562.9,109 590.4,165.1 628.7,148.2 		"/>
	</g>
	<path class="st26" d="M694.8,79.9"/>
	<polygon class="st26" points="622.1,109.6 611.5,139 635.3,152.5 637.5,126.7 	"/>
	<polygon class="st29" points="687.8,80.4 683.7,75 666.5,79.9 668.6,85.8 	"/>
	<polyline class="st10" points="668.6,85.8 661.7,100.8 661.6,85.8 662.2,81.1 666.9,81.1 668.6,85.8 	"/>
	<polygon class="st29" points="661.6,85.8 662.5,79.9 658.3,77.9 653.4,83.1 	"/>
	<g>
		<path class="st30" d="M631.2,141.2"/>
	</g>
	<g>
		<path class="st29" d="M635.2,152.9c0,0,0.4-0.6,0.3-2c-0.1-1.3-0.7-3.2-2.1-4.9c-1.3-1.8-3.1-3.6-3.6-6.3
			c-0.2-1.4-0.2-2.9,0.3-4.3c0.4-1.4,1.3-2.7,2.4-3.6c1.1-0.9,2.3-1.4,3.6-1.5l0.4,0l0.1-0.5c0.7-5.7,1.6-10.7,1.8-14.3
			c0.3-3.6,0-5.8-0.1-5.8c-0.1,0-0.1,2.2-0.6,5.7c-0.4,3.6-1.4,8.5-2.2,14.2l0.5-0.5c-1.4,0.1-2.9,0.7-4.1,1.7
			c-1.3,1.1-2.3,2.6-2.8,4.2c-0.5,1.6-0.5,3.4-0.2,4.9c0.3,1.6,1,2.9,1.8,4c0.8,1.1,1.6,1.9,2.2,2.7c1.3,1.6,2,3.2,2.2,4.4
			C635.3,152.2,635.1,152.9,635.2,152.9z"/>
	</g>
	<g>
		<path class="st29" d="M635.2,114c-0.2,0.2,0.4,1.5,1,3.2c0.6,1.7,1,3.1,1.3,3.1c0.3,0,0.3-1.7-0.3-3.6
			C636.5,114.9,635.4,113.8,635.2,114z"/>
	</g>
	<g>
		<path class="st29" d="M610.8,139.1c-0.1,0.3,5.2,3.7,12.1,7.3c6.9,3.6,12.7,6,12.8,5.7c0.1-0.3-5.5-3.2-12.3-6.8
			C616.5,141.7,610.9,138.8,610.8,139.1z"/>
	</g>
	<g>
		<path class="st29" d="M612.2,134.8c-0.1,0.3,4.7,3.5,10.8,7.2c6.1,3.7,11.2,6.4,11.3,6.1c0.1-0.3-4.7-3.5-10.8-7.2
			C617.4,137.3,612.3,134.5,612.2,134.8z"/>
	</g>
	<g>
		<path class="st29" d="M644.1,115c0,0.3,1.4,0.7,3.2,0.8c1.8,0.1,3.3,0,3.3-0.4c0-0.3-1.4-0.7-3.2-0.8
			C645.5,114.5,644.1,114.6,644.1,115z"/>
	</g>
	<g>
		<path class="st29" d="M643.4,116.2c-0.1,0.3,1.6,1.1,3.7,1.7c2.1,0.6,3.8,0.8,3.9,0.5c0.1-0.3-1.6-1.1-3.7-1.7
			C645.3,116.2,643.5,115.9,643.4,116.2z"/>
	</g>
	<g>
		<path class="st0" d="M588.4,489.7c0,0-19.7,6-14.8,7.7c4.9,1.7,39-2.5,39-2.5l1.1-4.4L588.4,489.7z"/>
		<polygon class="st0" points="612.6,494.8 619.5,473.5 589.3,473.5 588.4,489.7 		"/>
	</g>
	<g>
		<path class="st0" d="M729.6,468.6c0,0-5,22.4-1.3,18.4c3.7-4,17-39.9,17-39.9l-2.8-3.3L729.6,468.6z"/>
		<polygon class="st0" points="745.4,447.1 732.3,429.8 717.7,459.8 729.6,468.6 		"/>
	</g>
	<g>
		<path class="st23" d="M663.9,9.9c0-0.1-1.8-0.3-4.7,0.6c-2.8,0.9-6.6,2.9-9.7,6.7c-3.1,3.8-4.6,8.2-5.2,11.5
			c-0.6,3.3-0.3,5.4-0.2,5.3c0.2,0,0.2-2,0.9-5.1c0.7-3.1,2.3-7.3,5.2-10.9c2.9-3.6,6.5-5.7,9.2-6.7C662.2,10.3,664,10.1,663.9,9.9z
			"/>
	</g>
	<path class="st10" d="M685.7,49.6c-0.1-1.8-0.1-3.6,0.5-5.3c0.6-1.7,1.8-3.2,3.4-3.3c1.8-0.2,3.6,1.5,3.8,3.5
		c0.3,2-0.8,4.2-2.3,5.2c-1.6,1-3.6,1-5.3,0.2"/>
	<g>
		<path class="st13" d="M659.4,38.4c0.1,0,0-0.8,0.3-2c0.3-1.3,1-3.1,2.7-4.5c0.8-0.7,1.9-1.3,3-1.5c1.2-0.2,2.5-0.2,3.8,0.4
			c1.3,0.5,2.5,1.5,3.3,2.9c0.9,1.3,1.4,3,1.4,4.8c0,1.8-0.5,3.5-1.4,4.8c-0.9,1.4-2.1,2.3-3.3,2.9c-1.3,0.6-2.6,0.6-3.8,0.4
			c-1.2-0.2-2.2-0.8-3-1.5c-1.7-1.4-2.4-3.3-2.7-4.5C659.5,39.1,659.5,38.4,659.4,38.4c0,0,0,0.2,0,0.5c0,0.4,0,0.9,0.2,1.5
			c0.2,1.3,1,3.3,2.7,4.8c0.9,0.7,1.9,1.4,3.2,1.7c1.2,0.3,2.7,0.2,4-0.3c1.4-0.5,2.7-1.6,3.6-3c0.9-1.4,1.5-3.3,1.5-5.2
			c0-1.9-0.6-3.7-1.5-5.2c-0.9-1.4-2.2-2.5-3.6-3c-1.4-0.6-2.8-0.6-4-0.3c-1.3,0.3-2.3,0.9-3.2,1.7c-1.7,1.5-2.4,3.5-2.7,4.8
			c-0.1,0.7-0.2,1.2-0.2,1.5C659.4,38.2,659.4,38.4,659.4,38.4z"/>
	</g>
	<g>
		<path class="st13" d="M642.3,38.4c0.1,0,0-0.8,0.3-2c0.3-1.3,1-3.1,2.7-4.5c0.8-0.7,1.9-1.3,3-1.5c1.2-0.2,2.5-0.2,3.8,0.4
			c1.3,0.5,2.5,1.5,3.3,2.9c0.9,1.3,1.4,3,1.4,4.8c0,1.8-0.5,3.5-1.4,4.8c-0.9,1.4-2.1,2.3-3.3,2.9c-1.3,0.6-2.6,0.6-3.8,0.4
			c-1.2-0.2-2.2-0.8-3-1.5c-1.7-1.4-2.4-3.3-2.7-4.5C642.3,39.1,642.4,38.4,642.3,38.4c0,0,0,0.2,0,0.5c0,0.4,0,0.9,0.2,1.5
			c0.2,1.3,1,3.3,2.7,4.8c0.9,0.7,1.9,1.4,3.2,1.7c1.2,0.3,2.7,0.2,4-0.3c1.4-0.5,2.7-1.6,3.6-3c0.9-1.4,1.5-3.3,1.5-5.2
			c0-1.9-0.6-3.7-1.5-5.2c-0.9-1.4-2.2-2.5-3.6-3c-1.4-0.6-2.8-0.6-4-0.3c-1.3,0.3-2.3,0.9-3.2,1.7c-1.7,1.5-2.4,3.5-2.7,4.8
			c-0.1,0.7-0.2,1.2-0.2,1.5C642.3,38.2,642.3,38.4,642.3,38.4z"/>
	</g>
	<g>
		<path class="st13" d="M657.2,38.6c0,0.2,0.6,0.3,1.4,0.3c0.8,0,1.4-0.1,1.4-0.3s-0.6-0.3-1.4-0.3
			C657.8,38.3,657.2,38.5,657.2,38.6z"/>
	</g>
	<g>
		<path class="st13" d="M674,40.1c0,0.2,2.9,1,6.5,1.8c3.6,0.8,6.6,1.3,6.6,1.2c0-0.2-2.9-1-6.5-1.8C677,40.5,674,40,674,40.1z"/>
	</g>
	<path class="st16" d="M537.7,141.6c0.8,2.6,2.8,4.2,4.5,3.5s2.4-3.3,1.6-6c-0.8-2.6-2.8-4.2-4.5-3.5
		C537.6,136.4,536.9,139,537.7,141.6z"/>
	<path class="st27" d="M675,206c0,0-0.9-99.5,2.2-107.1c0,0,3.2-18.7,15.8-19l-5.6,0.5c0,0-11.4-0.9-14.7,24.6s-3.1,101.8-3.1,101.8
		L675,206z"/>
	<path class="st27" d="M650.6,209.5c0,0-3.4-114.3-0.7-126.3h-3.4c0,0-3,9.8-2.4,37.2c0.4,16.5,0,89.1,0,89.1H650.6z"/>
	<g>
		<path class="st10" d="M610.5,158.8c0,0-16.5,11.9-20.1,11.8c-3.6-0.1-13.9-0.4-12.8,1.2c1.1,1.6,12.8,3.8,12.8,3.8L610.5,158.8z"
			/>
		<path class="st10" d="M611.7,183.8c0,0,77.9,23.8,88.6-14.7c11.3-40.8,11.5-30.2,11.5-30.2l-24.4-26.8c0,0-13.1,47.1-16.8,48.1
			c-20.4,5.9-43.7,2.1-51.9,0.5c-0.9-0.9-2-1.9-3.2-3.2c-1-1.1-1.9-2.4-2.5-3.9c-0.8-1.8-1.8-4.1-1.9-5.6c-0.2-1.8-2.3-2.4-3-0.9
			c-0.7,1.5-0.2,6.6,2.6,11.6c0,0-18.5,13.6-20.1,16.8L611.7,183.8z"/>
		<path class="st26" d="M694.8,79.9c0,0,17.8,3.9,18.5,35.7c0.7,31.8-10.6,56.1-10.6,56.1l-30.2-17.9L694.8,79.9"/>
		<g>
			<path class="st29" d="M672.6,154c-0.1,0.2,1.7,1.1,4.5,2.6c2.8,1.5,6.7,3.6,10.9,6c4.2,2.5,7.9,4.9,10.6,6.7
				c2.7,1.8,4.3,2.9,4.4,2.7c0.1-0.1-1.4-1.5-4-3.5c-2.6-2-6.3-4.5-10.5-7c-4.2-2.5-8.2-4.5-11.1-5.8
				C674.5,154.5,672.6,153.9,672.6,154z"/>
		</g>
		<g>
			<path class="st29" d="M673.9,151.7c0,0.2,1.7,0.9,4.5,2.2c2.8,1.3,6.7,3.1,10.9,5.4c4.2,2.3,7.8,4.6,10.5,6.4
				c2.6,1.7,4.3,2.8,4.3,2.7c0.1-0.1-1.4-1.5-4-3.4c-2.5-1.9-6.2-4.4-10.4-6.7c-4.2-2.3-8.2-4-11.1-5.1
				C675.7,152.1,673.9,151.6,673.9,151.7z"/>
		</g>
		<g>
			<path class="st29" d="M682.5,117.5c0.3,0,0.8-2.6,0.6-6c-0.2-3.4-1.1-5.9-1.4-5.8c-0.3,0.1,0.1,2.7,0.4,5.9
				C682.2,114.8,682.2,117.4,682.5,117.5z"/>
		</g>
		<g>
			<path class="st29" d="M672.6,153.9c0.1,0.1,1.3-2.3,2.9-6.3c1.6-4,3.6-9.7,5.3-16.1c1.7-6.5,2.7-12.5,3.3-16.8
				c0.6-4.4,0.7-7.1,0.5-7.1c-0.2,0-0.5,2.7-1.3,7c-0.7,4.3-1.9,10.2-3.6,16.6c-1.7,6.4-3.5,12.1-5,16.2
				C673.4,151.3,672.5,153.8,672.6,153.9z"/>
		</g>
	</g>
</g>
</svg>
